  0
SECTION
  2
BLOCKS
  0
ENDSEC
  0
SECTION
  2
ENTITIES
  0
LINE
  8
0
 10
69.6526
 20
-35.4572
 11
70.2941
 21
-35.3296
  0
LINE
  8
0
 10
70.2941
 20
-35.3296
 11
70.9134
 21
-35.1194
  0
LINE
  8
0
 10
70.9134
 20
-35.1194
 11
71.5
 21
-34.8301
  0
LINE
  8
0
 10
71.5
 20
-34.8301
 11
72.0438
 21
-34.4668
  0
LINE
  8
0
 10
72.0438
 20
-34.4668
 11
72.5355
 21
-34.0355
  0
LINE
  8
0
 10
72.5355
 20
-34.0355
 11
72.9668
 21
-33.5438
  0
LINE
  8
0
 10
72.9668
 20
-33.5438
 11
73.3301
 21
-33
  0
LINE
  8
0
 10
73.3301
 20
-33
 11
73.6194
 21
-32.4134
  0
LINE
  8
0
 10
73.6194
 20
-32.4134
 11
73.8296
 21
-31.7941
  0
LINE
  8
0
 10
73.8296
 20
-31.7941
 11
73.9572
 21
-31.1526
  0
LINE
  8
0
 10
73.9572
 20
-31.1526
 11
74
 21
-30.5
  0
LINE
  8
0
 10
74
 20
-30.5
 11
74
 21
30.5
  0
LINE
  8
0
 10
74
 20
30.5
 11
73.9572
 21
31.1526
  0
LINE
  8
0
 10
73.9572
 20
31.1526
 11
73.8296
 21
31.7941
  0
LINE
  8
0
 10
73.8296
 20
31.7941
 11
73.6194
 21
32.4134
  0
LINE
  8
0
 10
73.6194
 20
32.4134
 11
73.3301
 21
33
  0
LINE
  8
0
 10
73.3301
 20
33
 11
72.9668
 21
33.5438
  0
LINE
  8
0
 10
72.9668
 20
33.5438
 11
72.5355
 21
34.0355
  0
LINE
  8
0
 10
72.5355
 20
34.0355
 11
72.0438
 21
34.4668
  0
LINE
  8
0
 10
72.0438
 20
34.4668
 11
71.5
 21
34.8301
  0
LINE
  8
0
 10
71.5
 20
34.8301
 11
70.9134
 21
35.1194
  0
LINE
  8
0
 10
70.9134
 20
35.1194
 11
70.2941
 21
35.3296
  0
LINE
  8
0
 10
70.2941
 20
35.3296
 11
69.6526
 21
35.4572
  0
LINE
  8
0
 10
69.6526
 20
35.4572
 11
69
 21
35.5
  0
LINE
  8
0
 10
69
 20
35.5
 11
-86
 21
35.5
  0
LINE
  8
0
 10
-86
 20
35.5
 11
-86.6526
 21
35.4572
  0
LINE
  8
0
 10
-86.6526
 20
35.4572
 11
-87.2941
 21
35.3296
  0
LINE
  8
0
 10
-87.2941
 20
35.3296
 11
-87.9134
 21
35.1194
  0
LINE
  8
0
 10
-87.9134
 20
35.1194
 11
-88.5
 21
34.8301
  0
LINE
  8
0
 10
-88.5
 20
34.8301
 11
-89.0438
 21
34.4668
  0
LINE
  8
0
 10
-89.0438
 20
34.4668
 11
-89.5355
 21
34.0355
  0
LINE
  8
0
 10
-89.5355
 20
34.0355
 11
-89.9668
 21
33.5438
  0
LINE
  8
0
 10
-89.9668
 20
33.5438
 11
-90.3301
 21
33
  0
LINE
  8
0
 10
-90.3301
 20
33
 11
-90.6194
 21
32.4134
  0
LINE
  8
0
 10
-90.6194
 20
32.4134
 11
-90.8296
 21
31.7941
  0
LINE
  8
0
 10
-90.8296
 20
31.7941
 11
-90.9572
 21
31.1526
  0
LINE
  8
0
 10
-90.9572
 20
31.1526
 11
-91
 21
30.5
  0
LINE
  8
0
 10
-91
 20
30.5
 11
-91
 21
-30.5
  0
LINE
  8
0
 10
-91
 20
-30.5
 11
-90.9572
 21
-31.1526
  0
LINE
  8
0
 10
-90.9572
 20
-31.1526
 11
-90.8296
 21
-31.7941
  0
LINE
  8
0
 10
-90.8296
 20
-31.7941
 11
-90.6194
 21
-32.4134
  0
LINE
  8
0
 10
-90.6194
 20
-32.4134
 11
-90.3301
 21
-33
  0
LINE
  8
0
 10
-90.3301
 20
-33
 11
-89.9668
 21
-33.5438
  0
LINE
  8
0
 10
-89.9668
 20
-33.5438
 11
-89.5355
 21
-34.0355
  0
LINE
  8
0
 10
-89.5355
 20
-34.0355
 11
-89.0438
 21
-34.4668
  0
LINE
  8
0
 10
-89.0438
 20
-34.4668
 11
-88.5
 21
-34.8301
  0
LINE
  8
0
 10
-88.5
 20
-34.8301
 11
-87.9134
 21
-35.1194
  0
LINE
  8
0
 10
-87.9134
 20
-35.1194
 11
-87.2941
 21
-35.3296
  0
LINE
  8
0
 10
-87.2941
 20
-35.3296
 11
-86.6526
 21
-35.4572
  0
LINE
  8
0
 10
-86.6526
 20
-35.4572
 11
-86
 21
-35.5
  0
LINE
  8
0
 10
-86
 20
-35.5
 11
69
 21
-35.5
  0
LINE
  8
0
 10
69
 20
-35.5
 11
69.6526
 21
-35.4572
  0
LINE
  8
0
 10
-59
 20
26.5
 11
-59.3882
 21
26.5511
  0
LINE
  8
0
 10
-59.3882
 20
26.5511
 11
-59.75
 21
26.701
  0
LINE
  8
0
 10
-59.75
 20
26.701
 11
-60.0607
 21
26.9393
  0
LINE
  8
0
 10
-60.0607
 20
26.9393
 11
-60.299
 21
27.25
  0
LINE
  8
0
 10
-60.299
 20
27.25
 11
-60.4489
 21
27.6118
  0
LINE
  8
0
 10
-60.4489
 20
27.6118
 11
-60.5
 21
28
  0
LINE
  8
0
 10
-60.5
 20
28
 11
-60.4489
 21
28.3882
  0
LINE
  8
0
 10
-60.4489
 20
28.3882
 11
-60.299
 21
28.75
  0
LINE
  8
0
 10
-60.299
 20
28.75
 11
-60.0607
 21
29.0607
  0
LINE
  8
0
 10
-60.0607
 20
29.0607
 11
-59.75
 21
29.299
  0
LINE
  8
0
 10
-59.75
 20
29.299
 11
-59.3882
 21
29.4489
  0
LINE
  8
0
 10
-59.3882
 20
29.4489
 11
-59
 21
29.5
  0
LINE
  8
0
 10
-59
 20
29.5
 11
-24
 21
29.5
  0
LINE
  8
0
 10
-24
 20
29.5
 11
-23.6118
 21
29.4489
  0
LINE
  8
0
 10
-23.6118
 20
29.4489
 11
-23.25
 21
29.299
  0
LINE
  8
0
 10
-23.25
 20
29.299
 11
-22.9393
 21
29.0607
  0
LINE
  8
0
 10
-22.9393
 20
29.0607
 11
-22.701
 21
28.75
  0
LINE
  8
0
 10
-22.701
 20
28.75
 11
-22.5511
 21
28.3882
  0
LINE
  8
0
 10
-22.5511
 20
28.3882
 11
-22.5
 21
28
  0
LINE
  8
0
 10
-22.5
 20
28
 11
-22.5511
 21
27.6118
  0
LINE
  8
0
 10
-22.5511
 20
27.6118
 11
-22.701
 21
27.25
  0
LINE
  8
0
 10
-22.701
 20
27.25
 11
-22.9393
 21
26.9393
  0
LINE
  8
0
 10
-22.9393
 20
26.9393
 11
-23.25
 21
26.701
  0
LINE
  8
0
 10
-23.25
 20
26.701
 11
-23.6118
 21
26.5511
  0
LINE
  8
0
 10
-23.6118
 20
26.5511
 11
-24
 21
26.5
  0
LINE
  8
0
 10
-24
 20
26.5
 11
-59
 21
26.5
  0
LINE
  8
0
 10
16
 20
26.5
 11
15.6118
 21
26.5511
  0
LINE
  8
0
 10
15.6118
 20
26.5511
 11
15.25
 21
26.701
  0
LINE
  8
0
 10
15.25
 20
26.701
 11
14.9393
 21
26.9393
  0
LINE
  8
0
 10
14.9393
 20
26.9393
 11
14.701
 21
27.25
  0
LINE
  8
0
 10
14.701
 20
27.25
 11
14.5511
 21
27.6118
  0
LINE
  8
0
 10
14.5511
 20
27.6118
 11
14.5
 21
28
  0
LINE
  8
0
 10
14.5
 20
28
 11
14.5511
 21
28.3882
  0
LINE
  8
0
 10
14.5511
 20
28.3882
 11
14.701
 21
28.75
  0
LINE
  8
0
 10
14.701
 20
28.75
 11
14.9393
 21
29.0607
  0
LINE
  8
0
 10
14.9393
 20
29.0607
 11
15.25
 21
29.299
  0
LINE
  8
0
 10
15.25
 20
29.299
 11
15.6118
 21
29.4489
  0
LINE
  8
0
 10
15.6118
 20
29.4489
 11
16
 21
29.5
  0
LINE
  8
0
 10
16
 20
29.5
 11
51
 21
29.5
  0
LINE
  8
0
 10
51
 20
29.5
 11
51.3882
 21
29.4489
  0
LINE
  8
0
 10
51.3882
 20
29.4489
 11
51.75
 21
29.299
  0
LINE
  8
0
 10
51.75
 20
29.299
 11
52.0607
 21
29.0607
  0
LINE
  8
0
 10
52.0607
 20
29.0607
 11
52.299
 21
28.75
  0
LINE
  8
0
 10
52.299
 20
28.75
 11
52.4489
 21
28.3882
  0
LINE
  8
0
 10
52.4489
 20
28.3882
 11
52.5
 21
28
  0
LINE
  8
0
 10
52.5
 20
28
 11
52.4489
 21
27.6118
  0
LINE
  8
0
 10
52.4489
 20
27.6118
 11
52.299
 21
27.25
  0
LINE
  8
0
 10
52.299
 20
27.25
 11
52.0607
 21
26.9393
  0
LINE
  8
0
 10
52.0607
 20
26.9393
 11
51.75
 21
26.701
  0
LINE
  8
0
 10
51.75
 20
26.701
 11
51.3882
 21
26.5511
  0
LINE
  8
0
 10
51.3882
 20
26.5511
 11
51
 21
26.5
  0
LINE
  8
0
 10
51
 20
26.5
 11
16
 21
26.5
  0
LINE
  8
0
 10
60.56
 20
20.8579
 11
60.15
 21
21.0278
  0
LINE
  8
0
 10
60.15
 20
21.0278
 11
59.7979
 21
21.2979
  0
LINE
  8
0
 10
59.7979
 20
21.2979
 11
59.5278
 21
21.65
  0
LINE
  8
0
 10
59.5278
 20
21.65
 11
59.3579
 21
22.06
  0
LINE
  8
0
 10
59.3579
 20
22.06
 11
59.3
 21
22.5
  0
LINE
  8
0
 10
59.3
 20
22.5
 11
59.3579
 21
22.94
  0
LINE
  8
0
 10
59.3579
 20
22.94
 11
59.5278
 21
23.35
  0
LINE
  8
0
 10
59.5278
 20
23.35
 11
59.7979
 21
23.7021
  0
LINE
  8
0
 10
59.7979
 20
23.7021
 11
60.15
 21
23.9722
  0
LINE
  8
0
 10
60.15
 20
23.9722
 11
60.56
 21
24.1421
  0
LINE
  8
0
 10
60.56
 20
24.1421
 11
61
 21
24.2
  0
LINE
  8
0
 10
61
 20
24.2
 11
61.44
 21
24.1421
  0
LINE
  8
0
 10
61.44
 20
24.1421
 11
61.85
 21
23.9722
  0
LINE
  8
0
 10
61.85
 20
23.9722
 11
62.2021
 21
23.7021
  0
LINE
  8
0
 10
62.2021
 20
23.7021
 11
62.4722
 21
23.35
  0
LINE
  8
0
 10
62.4722
 20
23.35
 11
62.6421
 21
22.94
  0
LINE
  8
0
 10
62.6421
 20
22.94
 11
62.7
 21
22.5
  0
LINE
  8
0
 10
62.7
 20
22.5
 11
62.6421
 21
22.06
  0
LINE
  8
0
 10
62.6421
 20
22.06
 11
62.4722
 21
21.65
  0
LINE
  8
0
 10
62.4722
 20
21.65
 11
62.2021
 21
21.2979
  0
LINE
  8
0
 10
62.2021
 20
21.2979
 11
61.85
 21
21.0278
  0
LINE
  8
0
 10
61.85
 20
21.0278
 11
61.44
 21
20.8579
  0
LINE
  8
0
 10
61.44
 20
20.8579
 11
61
 21
20.8
  0
LINE
  8
0
 10
61
 20
20.8
 11
60.56
 21
20.8579
  0
LINE
  8
0
 10
5.56001
 20
20.8579
 11
5.15001
 21
21.0278
  0
LINE
  8
0
 10
5.15001
 20
21.0278
 11
4.79793
 21
21.2979
  0
LINE
  8
0
 10
4.79793
 20
21.2979
 11
4.52777
 21
21.65
  0
LINE
  8
0
 10
4.52777
 20
21.65
 11
4.35794
 21
22.06
  0
LINE
  8
0
 10
4.35794
 20
22.06
 11
4.3
 21
22.5
  0
LINE
  8
0
 10
4.3
 20
22.5
 11
4.35794
 21
22.94
  0
LINE
  8
0
 10
4.35794
 20
22.94
 11
4.52777
 21
23.35
  0
LINE
  8
0
 10
4.52777
 20
23.35
 11
4.79793
 21
23.7021
  0
LINE
  8
0
 10
4.79793
 20
23.7021
 11
5.15001
 21
23.9722
  0
LINE
  8
0
 10
5.15001
 20
23.9722
 11
5.56001
 21
24.1421
  0
LINE
  8
0
 10
5.56001
 20
24.1421
 11
6
 21
24.2
  0
LINE
  8
0
 10
6
 20
24.2
 11
6.44
 21
24.1421
  0
LINE
  8
0
 10
6.44
 20
24.1421
 11
6.85001
 21
23.9722
  0
LINE
  8
0
 10
6.85001
 20
23.9722
 11
7.20209
 21
23.7021
  0
LINE
  8
0
 10
7.20209
 20
23.7021
 11
7.47224
 21
23.35
  0
LINE
  8
0
 10
7.47224
 20
23.35
 11
7.64207
 21
22.94
  0
LINE
  8
0
 10
7.64207
 20
22.94
 11
7.70001
 21
22.5
  0
LINE
  8
0
 10
7.70001
 20
22.5
 11
7.64207
 21
22.06
  0
LINE
  8
0
 10
7.64207
 20
22.06
 11
7.47224
 21
21.65
  0
LINE
  8
0
 10
7.47224
 20
21.65
 11
7.20209
 21
21.2979
  0
LINE
  8
0
 10
7.20209
 20
21.2979
 11
6.85001
 21
21.0278
  0
LINE
  8
0
 10
6.85001
 20
21.0278
 11
6.44
 21
20.8579
  0
LINE
  8
0
 10
6.44
 20
20.8579
 11
6
 21
20.8
  0
LINE
  8
0
 10
6
 20
20.8
 11
5.56001
 21
20.8579
  0
LINE
  8
0
 10
-7.94
 20
18.3579
 11
-8.35001
 21
18.5278
  0
LINE
  8
0
 10
-8.35001
 20
18.5278
 11
-8.70209
 21
18.7979
  0
LINE
  8
0
 10
-8.70209
 20
18.7979
 11
-8.97224
 21
19.15
  0
LINE
  8
0
 10
-8.97224
 20
19.15
 11
-9.14207
 21
19.56
  0
LINE
  8
0
 10
-9.14207
 20
19.56
 11
-9.20001
 21
20
  0
LINE
  8
0
 10
-9.20001
 20
20
 11
-9.14207
 21
20.44
  0
LINE
  8
0
 10
-9.14207
 20
20.44
 11
-8.97224
 21
20.85
  0
LINE
  8
0
 10
-8.97224
 20
20.85
 11
-8.70209
 21
21.2021
  0
LINE
  8
0
 10
-8.70209
 20
21.2021
 11
-8.35001
 21
21.4722
  0
LINE
  8
0
 10
-8.35001
 20
21.4722
 11
-7.94
 21
21.6421
  0
LINE
  8
0
 10
-7.94
 20
21.6421
 11
-7.5
 21
21.7
  0
LINE
  8
0
 10
-7.5
 20
21.7
 11
-7.06001
 21
21.6421
  0
LINE
  8
0
 10
-7.06001
 20
21.6421
 11
-6.65001
 21
21.4722
  0
LINE
  8
0
 10
-6.65001
 20
21.4722
 11
-6.29793
 21
21.2021
  0
LINE
  8
0
 10
-6.29793
 20
21.2021
 11
-6.02777
 21
20.85
  0
LINE
  8
0
 10
-6.02777
 20
20.85
 11
-5.85794
 21
20.44
  0
LINE
  8
0
 10
-5.85794
 20
20.44
 11
-5.8
 21
20
  0
LINE
  8
0
 10
-5.8
 20
20
 11
-5.85794
 21
19.56
  0
LINE
  8
0
 10
-5.85794
 20
19.56
 11
-6.02777
 21
19.15
  0
LINE
  8
0
 10
-6.02777
 20
19.15
 11
-6.29793
 21
18.7979
  0
LINE
  8
0
 10
-6.29793
 20
18.7979
 11
-6.65001
 21
18.5278
  0
LINE
  8
0
 10
-6.65001
 20
18.5278
 11
-7.06001
 21
18.3579
  0
LINE
  8
0
 10
-7.06001
 20
18.3579
 11
-7.5
 21
18.3
  0
LINE
  8
0
 10
-7.5
 20
18.3
 11
-7.94
 21
18.3579
  0
LINE
  8
0
 10
-75.94
 20
18.3579
 11
-76.35
 21
18.5278
  0
LINE
  8
0
 10
-76.35
 20
18.5278
 11
-76.7021
 21
18.7979
  0
LINE
  8
0
 10
-76.7021
 20
18.7979
 11
-76.9722
 21
19.15
  0
LINE
  8
0
 10
-76.9722
 20
19.15
 11
-77.1421
 21
19.56
  0
LINE
  8
0
 10
-77.1421
 20
19.56
 11
-77.2
 21
20
  0
LINE
  8
0
 10
-77.2
 20
20
 11
-77.1421
 21
20.44
  0
LINE
  8
0
 10
-77.1421
 20
20.44
 11
-76.9722
 21
20.85
  0
LINE
  8
0
 10
-76.9722
 20
20.85
 11
-76.7021
 21
21.2021
  0
LINE
  8
0
 10
-76.7021
 20
21.2021
 11
-76.35
 21
21.4722
  0
LINE
  8
0
 10
-76.35
 20
21.4722
 11
-75.94
 21
21.6421
  0
LINE
  8
0
 10
-75.94
 20
21.6421
 11
-75.5
 21
21.7
  0
LINE
  8
0
 10
-75.5
 20
21.7
 11
-75.06
 21
21.6421
  0
LINE
  8
0
 10
-75.06
 20
21.6421
 11
-74.65
 21
21.4722
  0
LINE
  8
0
 10
-74.65
 20
21.4722
 11
-74.2979
 21
21.2021
  0
LINE
  8
0
 10
-74.2979
 20
21.2021
 11
-74.0278
 21
20.85
  0
LINE
  8
0
 10
-74.0278
 20
20.85
 11
-73.8579
 21
20.44
  0
LINE
  8
0
 10
-73.8579
 20
20.44
 11
-73.8
 21
20
  0
LINE
  8
0
 10
-73.8
 20
20
 11
-73.8579
 21
19.56
  0
LINE
  8
0
 10
-73.8579
 20
19.56
 11
-74.0278
 21
19.15
  0
LINE
  8
0
 10
-74.0278
 20
19.15
 11
-74.2979
 21
18.7979
  0
LINE
  8
0
 10
-74.2979
 20
18.7979
 11
-74.65
 21
18.5278
  0
LINE
  8
0
 10
-74.65
 20
18.5278
 11
-75.06
 21
18.3579
  0
LINE
  8
0
 10
-75.06
 20
18.3579
 11
-75.5
 21
18.3
  0
LINE
  8
0
 10
-75.5
 20
18.3
 11
-75.94
 21
18.3579
  0
LINE
  8
0
 10
-7.94
 20
-21.6421
 11
-8.35001
 21
-21.4722
  0
LINE
  8
0
 10
-8.35001
 20
-21.4722
 11
-8.70209
 21
-21.2021
  0
LINE
  8
0
 10
-8.70209
 20
-21.2021
 11
-8.97224
 21
-20.85
  0
LINE
  8
0
 10
-8.97224
 20
-20.85
 11
-9.14207
 21
-20.44
  0
LINE
  8
0
 10
-9.14207
 20
-20.44
 11
-9.20001
 21
-20
  0
LINE
  8
0
 10
-9.20001
 20
-20
 11
-9.14207
 21
-19.56
  0
LINE
  8
0
 10
-9.14207
 20
-19.56
 11
-8.97224
 21
-19.15
  0
LINE
  8
0
 10
-8.97224
 20
-19.15
 11
-8.70209
 21
-18.7979
  0
LINE
  8
0
 10
-8.70209
 20
-18.7979
 11
-8.35001
 21
-18.5278
  0
LINE
  8
0
 10
-8.35001
 20
-18.5278
 11
-7.94
 21
-18.3579
  0
LINE
  8
0
 10
-7.94
 20
-18.3579
 11
-7.5
 21
-18.3
  0
LINE
  8
0
 10
-7.5
 20
-18.3
 11
-7.06001
 21
-18.3579
  0
LINE
  8
0
 10
-7.06001
 20
-18.3579
 11
-6.65001
 21
-18.5278
  0
LINE
  8
0
 10
-6.65001
 20
-18.5278
 11
-6.29793
 21
-18.7979
  0
LINE
  8
0
 10
-6.29793
 20
-18.7979
 11
-6.02777
 21
-19.15
  0
LINE
  8
0
 10
-6.02777
 20
-19.15
 11
-5.85794
 21
-19.56
  0
LINE
  8
0
 10
-5.85794
 20
-19.56
 11
-5.8
 21
-20
  0
LINE
  8
0
 10
-5.8
 20
-20
 11
-5.85794
 21
-20.44
  0
LINE
  8
0
 10
-5.85794
 20
-20.44
 11
-6.02777
 21
-20.85
  0
LINE
  8
0
 10
-6.02777
 20
-20.85
 11
-6.29793
 21
-21.2021
  0
LINE
  8
0
 10
-6.29793
 20
-21.2021
 11
-6.65001
 21
-21.4722
  0
LINE
  8
0
 10
-6.65001
 20
-21.4722
 11
-7.06001
 21
-21.6421
  0
LINE
  8
0
 10
-7.06001
 20
-21.6421
 11
-7.5
 21
-21.7
  0
LINE
  8
0
 10
-7.5
 20
-21.7
 11
-7.94
 21
-21.6421
  0
LINE
  8
0
 10
-75.94
 20
-21.6421
 11
-76.35
 21
-21.4722
  0
LINE
  8
0
 10
-76.35
 20
-21.4722
 11
-76.7021
 21
-21.2021
  0
LINE
  8
0
 10
-76.7021
 20
-21.2021
 11
-76.9722
 21
-20.85
  0
LINE
  8
0
 10
-76.9722
 20
-20.85
 11
-77.1421
 21
-20.44
  0
LINE
  8
0
 10
-77.1421
 20
-20.44
 11
-77.2
 21
-20
  0
LINE
  8
0
 10
-77.2
 20
-20
 11
-77.1421
 21
-19.56
  0
LINE
  8
0
 10
-77.1421
 20
-19.56
 11
-76.9722
 21
-19.15
  0
LINE
  8
0
 10
-76.9722
 20
-19.15
 11
-76.7021
 21
-18.7979
  0
LINE
  8
0
 10
-76.7021
 20
-18.7979
 11
-76.35
 21
-18.5278
  0
LINE
  8
0
 10
-76.35
 20
-18.5278
 11
-75.94
 21
-18.3579
  0
LINE
  8
0
 10
-75.94
 20
-18.3579
 11
-75.5
 21
-18.3
  0
LINE
  8
0
 10
-75.5
 20
-18.3
 11
-75.06
 21
-18.3579
  0
LINE
  8
0
 10
-75.06
 20
-18.3579
 11
-74.65
 21
-18.5278
  0
LINE
  8
0
 10
-74.65
 20
-18.5278
 11
-74.2979
 21
-18.7979
  0
LINE
  8
0
 10
-74.2979
 20
-18.7979
 11
-74.0278
 21
-19.15
  0
LINE
  8
0
 10
-74.0278
 20
-19.15
 11
-73.8579
 21
-19.56
  0
LINE
  8
0
 10
-73.8579
 20
-19.56
 11
-73.8
 21
-20
  0
LINE
  8
0
 10
-73.8
 20
-20
 11
-73.8579
 21
-20.44
  0
LINE
  8
0
 10
-73.8579
 20
-20.44
 11
-74.0278
 21
-20.85
  0
LINE
  8
0
 10
-74.0278
 20
-20.85
 11
-74.2979
 21
-21.2021
  0
LINE
  8
0
 10
-74.2979
 20
-21.2021
 11
-74.65
 21
-21.4722
  0
LINE
  8
0
 10
-74.65
 20
-21.4722
 11
-75.06
 21
-21.6421
  0
LINE
  8
0
 10
-75.06
 20
-21.6421
 11
-75.5
 21
-21.7
  0
LINE
  8
0
 10
-75.5
 20
-21.7
 11
-75.94
 21
-21.6421
  0
LINE
  8
0
 10
60.56
 20
-24.1421
 11
60.15
 21
-23.9722
  0
LINE
  8
0
 10
60.15
 20
-23.9722
 11
59.7979
 21
-23.7021
  0
LINE
  8
0
 10
59.7979
 20
-23.7021
 11
59.5278
 21
-23.35
  0
LINE
  8
0
 10
59.5278
 20
-23.35
 11
59.3579
 21
-22.94
  0
LINE
  8
0
 10
59.3579
 20
-22.94
 11
59.3
 21
-22.5
  0
LINE
  8
0
 10
59.3
 20
-22.5
 11
59.3579
 21
-22.06
  0
LINE
  8
0
 10
59.3579
 20
-22.06
 11
59.5278
 21
-21.65
  0
LINE
  8
0
 10
59.5278
 20
-21.65
 11
59.7979
 21
-21.2979
  0
LINE
  8
0
 10
59.7979
 20
-21.2979
 11
60.15
 21
-21.0278
  0
LINE
  8
0
 10
60.15
 20
-21.0278
 11
60.56
 21
-20.8579
  0
LINE
  8
0
 10
60.56
 20
-20.8579
 11
61
 21
-20.8
  0
LINE
  8
0
 10
61
 20
-20.8
 11
61.44
 21
-20.8579
  0
LINE
  8
0
 10
61.44
 20
-20.8579
 11
61.85
 21
-21.0278
  0
LINE
  8
0
 10
61.85
 20
-21.0278
 11
62.2021
 21
-21.2979
  0
LINE
  8
0
 10
62.2021
 20
-21.2979
 11
62.4722
 21
-21.65
  0
LINE
  8
0
 10
62.4722
 20
-21.65
 11
62.6421
 21
-22.06
  0
LINE
  8
0
 10
62.6421
 20
-22.06
 11
62.7
 21
-22.5
  0
LINE
  8
0
 10
62.7
 20
-22.5
 11
62.6421
 21
-22.94
  0
LINE
  8
0
 10
62.6421
 20
-22.94
 11
62.4722
 21
-23.35
  0
LINE
  8
0
 10
62.4722
 20
-23.35
 11
62.2021
 21
-23.7021
  0
LINE
  8
0
 10
62.2021
 20
-23.7021
 11
61.85
 21
-23.9722
  0
LINE
  8
0
 10
61.85
 20
-23.9722
 11
61.44
 21
-24.1421
  0
LINE
  8
0
 10
61.44
 20
-24.1421
 11
61
 21
-24.2
  0
LINE
  8
0
 10
61
 20
-24.2
 11
60.56
 21
-24.1421
  0
LINE
  8
0
 10
5.56001
 20
-24.1421
 11
5.15001
 21
-23.9722
  0
LINE
  8
0
 10
5.15001
 20
-23.9722
 11
4.79793
 21
-23.7021
  0
LINE
  8
0
 10
4.79793
 20
-23.7021
 11
4.52777
 21
-23.35
  0
LINE
  8
0
 10
4.52777
 20
-23.35
 11
4.35794
 21
-22.94
  0
LINE
  8
0
 10
4.35794
 20
-22.94
 11
4.3
 21
-22.5
  0
LINE
  8
0
 10
4.3
 20
-22.5
 11
4.35794
 21
-22.06
  0
LINE
  8
0
 10
4.35794
 20
-22.06
 11
4.52777
 21
-21.65
  0
LINE
  8
0
 10
4.52777
 20
-21.65
 11
4.79793
 21
-21.2979
  0
LINE
  8
0
 10
4.79793
 20
-21.2979
 11
5.15001
 21
-21.0278
  0
LINE
  8
0
 10
5.15001
 20
-21.0278
 11
5.56001
 21
-20.8579
  0
LINE
  8
0
 10
5.56001
 20
-20.8579
 11
6
 21
-20.8
  0
LINE
  8
0
 10
6
 20
-20.8
 11
6.44
 21
-20.8579
  0
LINE
  8
0
 10
6.44
 20
-20.8579
 11
6.85001
 21
-21.0278
  0
LINE
  8
0
 10
6.85001
 20
-21.0278
 11
7.20209
 21
-21.2979
  0
LINE
  8
0
 10
7.20209
 20
-21.2979
 11
7.47224
 21
-21.65
  0
LINE
  8
0
 10
7.47224
 20
-21.65
 11
7.64207
 21
-22.06
  0
LINE
  8
0
 10
7.64207
 20
-22.06
 11
7.70001
 21
-22.5
  0
LINE
  8
0
 10
7.70001
 20
-22.5
 11
7.64207
 21
-22.94
  0
LINE
  8
0
 10
7.64207
 20
-22.94
 11
7.47224
 21
-23.35
  0
LINE
  8
0
 10
7.47224
 20
-23.35
 11
7.20209
 21
-23.7021
  0
LINE
  8
0
 10
7.20209
 20
-23.7021
 11
6.85001
 21
-23.9722
  0
LINE
  8
0
 10
6.85001
 20
-23.9722
 11
6.44
 21
-24.1421
  0
LINE
  8
0
 10
6.44
 20
-24.1421
 11
6
 21
-24.2
  0
LINE
  8
0
 10
6
 20
-24.2
 11
5.56001
 21
-24.1421
  0
ENDSEC
  0
SECTION
  2
OBJECTS
  0
DICTIONARY
  0
ENDSEC
  0
EOF
