  0
SECTION
  2
BLOCKS
  0
ENDSEC
  0
SECTION
  2
ENTITIES
  0
LINE
  8
0
 10
106.882
 20
-36.9889
 11
110.5
 21
-35.4904
  0
LINE
  8
0
 10
110.5
 20
-35.4904
 11
113.607
 21
-33.1066
  0
LINE
  8
0
 10
113.607
 20
-33.1066
 11
115.99
 21
-30
  0
LINE
  8
0
 10
115.99
 20
-30
 11
117.489
 21
-26.3823
  0
LINE
  8
0
 10
117.489
 20
-26.3823
 11
118
 21
-22.5
  0
LINE
  8
0
 10
118
 20
-22.5
 11
118
 21
22.5
  0
LINE
  8
0
 10
118
 20
22.5
 11
117.489
 21
26.3823
  0
LINE
  8
0
 10
117.489
 20
26.3823
 11
115.99
 21
30
  0
LINE
  8
0
 10
115.99
 20
30
 11
113.607
 21
33.1066
  0
LINE
  8
0
 10
113.607
 20
33.1066
 11
110.5
 21
35.4904
  0
LINE
  8
0
 10
110.5
 20
35.4904
 11
106.882
 21
36.9889
  0
LINE
  8
0
 10
106.882
 20
36.9889
 11
103
 21
37.5
  0
LINE
  8
0
 10
103
 20
37.5
 11
-34
 21
37.5
  0
LINE
  8
0
 10
-34
 20
37.5
 11
-37.8823
 21
36.9889
  0
LINE
  8
0
 10
-37.8823
 20
36.9889
 11
-41.5
 21
35.4904
  0
LINE
  8
0
 10
-41.5
 20
35.4904
 11
-44.6066
 21
33.1066
  0
LINE
  8
0
 10
-44.6066
 20
33.1066
 11
-46.9904
 21
30
  0
LINE
  8
0
 10
-46.9904
 20
30
 11
-48.4889
 21
26.3823
  0
LINE
  8
0
 10
-48.4889
 20
26.3823
 11
-49
 21
22.5
  0
LINE
  8
0
 10
-49
 20
22.5
 11
-49
 21
-22.5
  0
LINE
  8
0
 10
-49
 20
-22.5
 11
-48.4889
 21
-26.3823
  0
LINE
  8
0
 10
-48.4889
 20
-26.3823
 11
-46.9904
 21
-30
  0
LINE
  8
0
 10
-46.9904
 20
-30
 11
-44.6066
 21
-33.1066
  0
LINE
  8
0
 10
-44.6066
 20
-33.1066
 11
-41.5
 21
-35.4904
  0
LINE
  8
0
 10
-41.5
 20
-35.4904
 11
-37.8823
 21
-36.9889
  0
LINE
  8
0
 10
-37.8823
 20
-36.9889
 11
-34
 21
-37.5
  0
LINE
  8
0
 10
-34
 20
-37.5
 11
103
 21
-37.5
  0
LINE
  8
0
 10
103
 20
-37.5
 11
106.882
 21
-36.9889
  0
LINE
  8
0
 10
-17.5
 20
26.5
 11
-18.0176
 21
26.5681
  0
LINE
  8
0
 10
-18.0176
 20
26.5681
 11
-18.5
 21
26.7679
  0
LINE
  8
0
 10
-18.5
 20
26.7679
 11
-18.9142
 21
27.0858
  0
LINE
  8
0
 10
-18.9142
 20
27.0858
 11
-19.232
 21
27.5
  0
LINE
  8
0
 10
-19.232
 20
27.5
 11
-19.4318
 21
27.9824
  0
LINE
  8
0
 10
-19.4318
 20
27.9824
 11
-19.5
 21
28.5
  0
LINE
  8
0
 10
-19.5
 20
28.5
 11
-19.4318
 21
29.0176
  0
LINE
  8
0
 10
-19.4318
 20
29.0176
 11
-19.232
 21
29.5
  0
LINE
  8
0
 10
-19.232
 20
29.5
 11
-18.9142
 21
29.9142
  0
LINE
  8
0
 10
-18.9142
 20
29.9142
 11
-18.5
 21
30.232
  0
LINE
  8
0
 10
-18.5
 20
30.232
 11
-18.0176
 21
30.4318
  0
LINE
  8
0
 10
-18.0176
 20
30.4318
 11
-17.5
 21
30.5
  0
LINE
  8
0
 10
-17.5
 20
30.5
 11
17.5
 21
30.5
  0
LINE
  8
0
 10
17.5
 20
30.5
 11
18.0176
 21
30.4318
  0
LINE
  8
0
 10
18.0176
 20
30.4318
 11
18.5
 21
30.232
  0
LINE
  8
0
 10
18.5
 20
30.232
 11
18.9142
 21
29.9142
  0
LINE
  8
0
 10
18.9142
 20
29.9142
 11
19.232
 21
29.5
  0
LINE
  8
0
 10
19.232
 20
29.5
 11
19.4318
 21
29.0176
  0
LINE
  8
0
 10
19.4318
 20
29.0176
 11
19.5
 21
28.5
  0
LINE
  8
0
 10
19.5
 20
28.5
 11
19.4318
 21
27.9824
  0
LINE
  8
0
 10
19.4318
 20
27.9824
 11
19.232
 21
27.5
  0
LINE
  8
0
 10
19.232
 20
27.5
 11
18.9142
 21
27.0858
  0
LINE
  8
0
 10
18.9142
 20
27.0858
 11
18.5
 21
26.7679
  0
LINE
  8
0
 10
18.5
 20
26.7679
 11
18.0176
 21
26.5681
  0
LINE
  8
0
 10
18.0176
 20
26.5681
 11
17.5
 21
26.5
  0
LINE
  8
0
 10
17.5
 20
26.5
 11
-17.5
 21
26.5
  0
LINE
  8
0
 10
58
 20
24.5
 11
57.4824
 21
24.5681
  0
LINE
  8
0
 10
57.4824
 20
24.5681
 11
57
 21
24.7679
  0
LINE
  8
0
 10
57
 20
24.7679
 11
56.5858
 21
25.0858
  0
LINE
  8
0
 10
56.5858
 20
25.0858
 11
56.268
 21
25.5
  0
LINE
  8
0
 10
56.268
 20
25.5
 11
56.0682
 21
25.9824
  0
LINE
  8
0
 10
56.0682
 20
25.9824
 11
56
 21
26.5
  0
LINE
  8
0
 10
56
 20
26.5
 11
56.0682
 21
27.0176
  0
LINE
  8
0
 10
56.0682
 20
27.0176
 11
56.268
 21
27.5
  0
LINE
  8
0
 10
56.268
 20
27.5
 11
56.5858
 21
27.9142
  0
LINE
  8
0
 10
56.5858
 20
27.9142
 11
57
 21
28.232
  0
LINE
  8
0
 10
57
 20
28.232
 11
57.4824
 21
28.4318
  0
LINE
  8
0
 10
57.4824
 20
28.4318
 11
58
 21
28.5
  0
LINE
  8
0
 10
58
 20
28.5
 11
93
 21
28.5
  0
LINE
  8
0
 10
93
 20
28.5
 11
93.5176
 21
28.4318
  0
LINE
  8
0
 10
93.5176
 20
28.4318
 11
94
 21
28.232
  0
LINE
  8
0
 10
94
 20
28.232
 11
94.4142
 21
27.9142
  0
LINE
  8
0
 10
94.4142
 20
27.9142
 11
94.732
 21
27.5
  0
LINE
  8
0
 10
94.732
 20
27.5
 11
94.9318
 21
27.0176
  0
LINE
  8
0
 10
94.9318
 20
27.0176
 11
95
 21
26.5
  0
LINE
  8
0
 10
95
 20
26.5
 11
94.9318
 21
25.9824
  0
LINE
  8
0
 10
94.9318
 20
25.9824
 11
94.732
 21
25.5
  0
LINE
  8
0
 10
94.732
 20
25.5
 11
94.4142
 21
25.0858
  0
LINE
  8
0
 10
94.4142
 20
25.0858
 11
94
 21
24.7679
  0
LINE
  8
0
 10
94
 20
24.7679
 11
93.5176
 21
24.5681
  0
LINE
  8
0
 10
93.5176
 20
24.5681
 11
93
 21
24.5
  0
LINE
  8
0
 10
93
 20
24.5
 11
58
 21
24.5
  0
LINE
  8
0
 10
33.56
 20
20.8579
 11
33.15
 21
21.0278
  0
LINE
  8
0
 10
33.15
 20
21.0278
 11
32.7979
 21
21.2979
  0
LINE
  8
0
 10
32.7979
 20
21.2979
 11
32.5278
 21
21.65
  0
LINE
  8
0
 10
32.5278
 20
21.65
 11
32.3579
 21
22.06
  0
LINE
  8
0
 10
32.3579
 20
22.06
 11
32.3
 21
22.5
  0
LINE
  8
0
 10
32.3
 20
22.5
 11
32.3579
 21
22.94
  0
LINE
  8
0
 10
32.3579
 20
22.94
 11
32.5278
 21
23.35
  0
LINE
  8
0
 10
32.5278
 20
23.35
 11
32.7979
 21
23.7021
  0
LINE
  8
0
 10
32.7979
 20
23.7021
 11
33.15
 21
23.9722
  0
LINE
  8
0
 10
33.15
 20
23.9722
 11
33.56
 21
24.1421
  0
LINE
  8
0
 10
33.56
 20
24.1421
 11
34
 21
24.2
  0
LINE
  8
0
 10
34
 20
24.2
 11
34.44
 21
24.1421
  0
LINE
  8
0
 10
34.44
 20
24.1421
 11
34.85
 21
23.9722
  0
LINE
  8
0
 10
34.85
 20
23.9722
 11
35.2021
 21
23.7021
  0
LINE
  8
0
 10
35.2021
 20
23.7021
 11
35.4722
 21
23.35
  0
LINE
  8
0
 10
35.4722
 20
23.35
 11
35.6421
 21
22.94
  0
LINE
  8
0
 10
35.6421
 20
22.94
 11
35.7
 21
22.5
  0
LINE
  8
0
 10
35.7
 20
22.5
 11
35.6421
 21
22.06
  0
LINE
  8
0
 10
35.6421
 20
22.06
 11
35.4722
 21
21.65
  0
LINE
  8
0
 10
35.4722
 20
21.65
 11
35.2021
 21
21.2979
  0
LINE
  8
0
 10
35.2021
 20
21.2979
 11
34.85
 21
21.0278
  0
LINE
  8
0
 10
34.85
 20
21.0278
 11
34.44
 21
20.8579
  0
LINE
  8
0
 10
34.44
 20
20.8579
 11
34
 21
20.8
  0
LINE
  8
0
 10
34
 20
20.8
 11
33.56
 21
20.8579
  0
LINE
  8
0
 10
-34.44
 20
20.8579
 11
-34.85
 21
21.0278
  0
LINE
  8
0
 10
-34.85
 20
21.0278
 11
-35.2021
 21
21.2979
  0
LINE
  8
0
 10
-35.2021
 20
21.2979
 11
-35.4722
 21
21.65
  0
LINE
  8
0
 10
-35.4722
 20
21.65
 11
-35.6421
 21
22.06
  0
LINE
  8
0
 10
-35.6421
 20
22.06
 11
-35.7
 21
22.5
  0
LINE
  8
0
 10
-35.7
 20
22.5
 11
-35.6421
 21
22.94
  0
LINE
  8
0
 10
-35.6421
 20
22.94
 11
-35.4722
 21
23.35
  0
LINE
  8
0
 10
-35.4722
 20
23.35
 11
-35.2021
 21
23.7021
  0
LINE
  8
0
 10
-35.2021
 20
23.7021
 11
-34.85
 21
23.9722
  0
LINE
  8
0
 10
-34.85
 20
23.9722
 11
-34.44
 21
24.1421
  0
LINE
  8
0
 10
-34.44
 20
24.1421
 11
-34
 21
24.2
  0
LINE
  8
0
 10
-34
 20
24.2
 11
-33.56
 21
24.1421
  0
LINE
  8
0
 10
-33.56
 20
24.1421
 11
-33.15
 21
23.9722
  0
LINE
  8
0
 10
-33.15
 20
23.9722
 11
-32.7979
 21
23.7021
  0
LINE
  8
0
 10
-32.7979
 20
23.7021
 11
-32.5278
 21
23.35
  0
LINE
  8
0
 10
-32.5278
 20
23.35
 11
-32.3579
 21
22.94
  0
LINE
  8
0
 10
-32.3579
 20
22.94
 11
-32.3
 21
22.5
  0
LINE
  8
0
 10
-32.3
 20
22.5
 11
-32.3579
 21
22.06
  0
LINE
  8
0
 10
-32.3579
 20
22.06
 11
-32.5278
 21
21.65
  0
LINE
  8
0
 10
-32.5278
 20
21.65
 11
-32.7979
 21
21.2979
  0
LINE
  8
0
 10
-32.7979
 20
21.2979
 11
-33.15
 21
21.0278
  0
LINE
  8
0
 10
-33.15
 20
21.0278
 11
-33.56
 21
20.8579
  0
LINE
  8
0
 10
-33.56
 20
20.8579
 11
-34
 21
20.8
  0
LINE
  8
0
 10
-34
 20
20.8
 11
-34.44
 21
20.8579
  0
LINE
  8
0
 10
102.56
 20
20.8579
 11
102.15
 21
21.0278
  0
LINE
  8
0
 10
102.15
 20
21.0278
 11
101.798
 21
21.2979
  0
LINE
  8
0
 10
101.798
 20
21.2979
 11
101.528
 21
21.65
  0
LINE
  8
0
 10
101.528
 20
21.65
 11
101.358
 21
22.06
  0
LINE
  8
0
 10
101.358
 20
22.06
 11
101.3
 21
22.5
  0
LINE
  8
0
 10
101.3
 20
22.5
 11
101.358
 21
22.94
  0
LINE
  8
0
 10
101.358
 20
22.94
 11
101.528
 21
23.35
  0
LINE
  8
0
 10
101.528
 20
23.35
 11
101.798
 21
23.7021
  0
LINE
  8
0
 10
101.798
 20
23.7021
 11
102.15
 21
23.9722
  0
LINE
  8
0
 10
102.15
 20
23.9722
 11
102.56
 21
24.1421
  0
LINE
  8
0
 10
102.56
 20
24.1421
 11
103
 21
24.2
  0
LINE
  8
0
 10
103
 20
24.2
 11
103.44
 21
24.1421
  0
LINE
  8
0
 10
103.44
 20
24.1421
 11
103.85
 21
23.9722
  0
LINE
  8
0
 10
103.85
 20
23.9722
 11
104.202
 21
23.7021
  0
LINE
  8
0
 10
104.202
 20
23.7021
 11
104.472
 21
23.35
  0
LINE
  8
0
 10
104.472
 20
23.35
 11
104.642
 21
22.94
  0
LINE
  8
0
 10
104.642
 20
22.94
 11
104.7
 21
22.5
  0
LINE
  8
0
 10
104.7
 20
22.5
 11
104.642
 21
22.06
  0
LINE
  8
0
 10
104.642
 20
22.06
 11
104.472
 21
21.65
  0
LINE
  8
0
 10
104.472
 20
21.65
 11
104.202
 21
21.2979
  0
LINE
  8
0
 10
104.202
 20
21.2979
 11
103.85
 21
21.0278
  0
LINE
  8
0
 10
103.85
 20
21.0278
 11
103.44
 21
20.8579
  0
LINE
  8
0
 10
103.44
 20
20.8579
 11
103
 21
20.8
  0
LINE
  8
0
 10
103
 20
20.8
 11
102.56
 21
20.8579
  0
LINE
  8
0
 10
47.56
 20
20.8579
 11
47.15
 21
21.0278
  0
LINE
  8
0
 10
47.15
 20
21.0278
 11
46.7979
 21
21.2979
  0
LINE
  8
0
 10
46.7979
 20
21.2979
 11
46.5278
 21
21.65
  0
LINE
  8
0
 10
46.5278
 20
21.65
 11
46.3579
 21
22.06
  0
LINE
  8
0
 10
46.3579
 20
22.06
 11
46.3
 21
22.5
  0
LINE
  8
0
 10
46.3
 20
22.5
 11
46.3579
 21
22.94
  0
LINE
  8
0
 10
46.3579
 20
22.94
 11
46.5278
 21
23.35
  0
LINE
  8
0
 10
46.5278
 20
23.35
 11
46.7979
 21
23.7021
  0
LINE
  8
0
 10
46.7979
 20
23.7021
 11
47.15
 21
23.9722
  0
LINE
  8
0
 10
47.15
 20
23.9722
 11
47.56
 21
24.1421
  0
LINE
  8
0
 10
47.56
 20
24.1421
 11
48
 21
24.2
  0
LINE
  8
0
 10
48
 20
24.2
 11
48.44
 21
24.1421
  0
LINE
  8
0
 10
48.44
 20
24.1421
 11
48.85
 21
23.9722
  0
LINE
  8
0
 10
48.85
 20
23.9722
 11
49.2021
 21
23.7021
  0
LINE
  8
0
 10
49.2021
 20
23.7021
 11
49.4722
 21
23.35
  0
LINE
  8
0
 10
49.4722
 20
23.35
 11
49.6421
 21
22.94
  0
LINE
  8
0
 10
49.6421
 20
22.94
 11
49.7
 21
22.5
  0
LINE
  8
0
 10
49.7
 20
22.5
 11
49.6421
 21
22.06
  0
LINE
  8
0
 10
49.6421
 20
22.06
 11
49.4722
 21
21.65
  0
LINE
  8
0
 10
49.4722
 20
21.65
 11
49.2021
 21
21.2979
  0
LINE
  8
0
 10
49.2021
 20
21.2979
 11
48.85
 21
21.0278
  0
LINE
  8
0
 10
48.85
 20
21.0278
 11
48.44
 21
20.8579
  0
LINE
  8
0
 10
48.44
 20
20.8579
 11
48
 21
20.8
  0
LINE
  8
0
 10
48
 20
20.8
 11
47.56
 21
20.8579
  0
LINE
  8
0
 10
33.56
 20
-24.1421
 11
33.15
 21
-23.9722
  0
LINE
  8
0
 10
33.15
 20
-23.9722
 11
32.7979
 21
-23.7021
  0
LINE
  8
0
 10
32.7979
 20
-23.7021
 11
32.5278
 21
-23.35
  0
LINE
  8
0
 10
32.5278
 20
-23.35
 11
32.3579
 21
-22.94
  0
LINE
  8
0
 10
32.3579
 20
-22.94
 11
32.3
 21
-22.5
  0
LINE
  8
0
 10
32.3
 20
-22.5
 11
32.3579
 21
-22.06
  0
LINE
  8
0
 10
32.3579
 20
-22.06
 11
32.5278
 21
-21.65
  0
LINE
  8
0
 10
32.5278
 20
-21.65
 11
32.7979
 21
-21.2979
  0
LINE
  8
0
 10
32.7979
 20
-21.2979
 11
33.15
 21
-21.0278
  0
LINE
  8
0
 10
33.15
 20
-21.0278
 11
33.56
 21
-20.8579
  0
LINE
  8
0
 10
33.56
 20
-20.8579
 11
34
 21
-20.8
  0
LINE
  8
0
 10
34
 20
-20.8
 11
34.44
 21
-20.8579
  0
LINE
  8
0
 10
34.44
 20
-20.8579
 11
34.85
 21
-21.0278
  0
LINE
  8
0
 10
34.85
 20
-21.0278
 11
35.2021
 21
-21.2979
  0
LINE
  8
0
 10
35.2021
 20
-21.2979
 11
35.4722
 21
-21.65
  0
LINE
  8
0
 10
35.4722
 20
-21.65
 11
35.6421
 21
-22.06
  0
LINE
  8
0
 10
35.6421
 20
-22.06
 11
35.7
 21
-22.5
  0
LINE
  8
0
 10
35.7
 20
-22.5
 11
35.6421
 21
-22.94
  0
LINE
  8
0
 10
35.6421
 20
-22.94
 11
35.4722
 21
-23.35
  0
LINE
  8
0
 10
35.4722
 20
-23.35
 11
35.2021
 21
-23.7021
  0
LINE
  8
0
 10
35.2021
 20
-23.7021
 11
34.85
 21
-23.9722
  0
LINE
  8
0
 10
34.85
 20
-23.9722
 11
34.44
 21
-24.1421
  0
LINE
  8
0
 10
34.44
 20
-24.1421
 11
34
 21
-24.2
  0
LINE
  8
0
 10
34
 20
-24.2
 11
33.56
 21
-24.1421
  0
LINE
  8
0
 10
-34.44
 20
-24.1421
 11
-34.85
 21
-23.9722
  0
LINE
  8
0
 10
-34.85
 20
-23.9722
 11
-35.2021
 21
-23.7021
  0
LINE
  8
0
 10
-35.2021
 20
-23.7021
 11
-35.4722
 21
-23.35
  0
LINE
  8
0
 10
-35.4722
 20
-23.35
 11
-35.6421
 21
-22.94
  0
LINE
  8
0
 10
-35.6421
 20
-22.94
 11
-35.7
 21
-22.5
  0
LINE
  8
0
 10
-35.7
 20
-22.5
 11
-35.6421
 21
-22.06
  0
LINE
  8
0
 10
-35.6421
 20
-22.06
 11
-35.4722
 21
-21.65
  0
LINE
  8
0
 10
-35.4722
 20
-21.65
 11
-35.2021
 21
-21.2979
  0
LINE
  8
0
 10
-35.2021
 20
-21.2979
 11
-34.85
 21
-21.0278
  0
LINE
  8
0
 10
-34.85
 20
-21.0278
 11
-34.44
 21
-20.8579
  0
LINE
  8
0
 10
-34.44
 20
-20.8579
 11
-34
 21
-20.8
  0
LINE
  8
0
 10
-34
 20
-20.8
 11
-33.56
 21
-20.8579
  0
LINE
  8
0
 10
-33.56
 20
-20.8579
 11
-33.15
 21
-21.0278
  0
LINE
  8
0
 10
-33.15
 20
-21.0278
 11
-32.7979
 21
-21.2979
  0
LINE
  8
0
 10
-32.7979
 20
-21.2979
 11
-32.5278
 21
-21.65
  0
LINE
  8
0
 10
-32.5278
 20
-21.65
 11
-32.3579
 21
-22.06
  0
LINE
  8
0
 10
-32.3579
 20
-22.06
 11
-32.3
 21
-22.5
  0
LINE
  8
0
 10
-32.3
 20
-22.5
 11
-32.3579
 21
-22.94
  0
LINE
  8
0
 10
-32.3579
 20
-22.94
 11
-32.5278
 21
-23.35
  0
LINE
  8
0
 10
-32.5278
 20
-23.35
 11
-32.7979
 21
-23.7021
  0
LINE
  8
0
 10
-32.7979
 20
-23.7021
 11
-33.15
 21
-23.9722
  0
LINE
  8
0
 10
-33.15
 20
-23.9722
 11
-33.56
 21
-24.1421
  0
LINE
  8
0
 10
-33.56
 20
-24.1421
 11
-34
 21
-24.2
  0
LINE
  8
0
 10
-34
 20
-24.2
 11
-34.44
 21
-24.1421
  0
LINE
  8
0
 10
102.56
 20
-24.1421
 11
102.15
 21
-23.9722
  0
LINE
  8
0
 10
102.15
 20
-23.9722
 11
101.798
 21
-23.7021
  0
LINE
  8
0
 10
101.798
 20
-23.7021
 11
101.528
 21
-23.35
  0
LINE
  8
0
 10
101.528
 20
-23.35
 11
101.358
 21
-22.94
  0
LINE
  8
0
 10
101.358
 20
-22.94
 11
101.3
 21
-22.5
  0
LINE
  8
0
 10
101.3
 20
-22.5
 11
101.358
 21
-22.06
  0
LINE
  8
0
 10
101.358
 20
-22.06
 11
101.528
 21
-21.65
  0
LINE
  8
0
 10
101.528
 20
-21.65
 11
101.798
 21
-21.2979
  0
LINE
  8
0
 10
101.798
 20
-21.2979
 11
102.15
 21
-21.0278
  0
LINE
  8
0
 10
102.15
 20
-21.0278
 11
102.56
 21
-20.8579
  0
LINE
  8
0
 10
102.56
 20
-20.8579
 11
103
 21
-20.8
  0
LINE
  8
0
 10
103
 20
-20.8
 11
103.44
 21
-20.8579
  0
LINE
  8
0
 10
103.44
 20
-20.8579
 11
103.85
 21
-21.0278
  0
LINE
  8
0
 10
103.85
 20
-21.0278
 11
104.202
 21
-21.2979
  0
LINE
  8
0
 10
104.202
 20
-21.2979
 11
104.472
 21
-21.65
  0
LINE
  8
0
 10
104.472
 20
-21.65
 11
104.642
 21
-22.06
  0
LINE
  8
0
 10
104.642
 20
-22.06
 11
104.7
 21
-22.5
  0
LINE
  8
0
 10
104.7
 20
-22.5
 11
104.642
 21
-22.94
  0
LINE
  8
0
 10
104.642
 20
-22.94
 11
104.472
 21
-23.35
  0
LINE
  8
0
 10
104.472
 20
-23.35
 11
104.202
 21
-23.7021
  0
LINE
  8
0
 10
104.202
 20
-23.7021
 11
103.85
 21
-23.9722
  0
LINE
  8
0
 10
103.85
 20
-23.9722
 11
103.44
 21
-24.1421
  0
LINE
  8
0
 10
103.44
 20
-24.1421
 11
103
 21
-24.2
  0
LINE
  8
0
 10
103
 20
-24.2
 11
102.56
 21
-24.1421
  0
LINE
  8
0
 10
47.56
 20
-24.1421
 11
47.15
 21
-23.9722
  0
LINE
  8
0
 10
47.15
 20
-23.9722
 11
46.7979
 21
-23.7021
  0
LINE
  8
0
 10
46.7979
 20
-23.7021
 11
46.5278
 21
-23.35
  0
LINE
  8
0
 10
46.5278
 20
-23.35
 11
46.3579
 21
-22.94
  0
LINE
  8
0
 10
46.3579
 20
-22.94
 11
46.3
 21
-22.5
  0
LINE
  8
0
 10
46.3
 20
-22.5
 11
46.3579
 21
-22.06
  0
LINE
  8
0
 10
46.3579
 20
-22.06
 11
46.5278
 21
-21.65
  0
LINE
  8
0
 10
46.5278
 20
-21.65
 11
46.7979
 21
-21.2979
  0
LINE
  8
0
 10
46.7979
 20
-21.2979
 11
47.15
 21
-21.0278
  0
LINE
  8
0
 10
47.15
 20
-21.0278
 11
47.56
 21
-20.8579
  0
LINE
  8
0
 10
47.56
 20
-20.8579
 11
48
 21
-20.8
  0
LINE
  8
0
 10
48
 20
-20.8
 11
48.44
 21
-20.8579
  0
LINE
  8
0
 10
48.44
 20
-20.8579
 11
48.85
 21
-21.0278
  0
LINE
  8
0
 10
48.85
 20
-21.0278
 11
49.2021
 21
-21.2979
  0
LINE
  8
0
 10
49.2021
 20
-21.2979
 11
49.4722
 21
-21.65
  0
LINE
  8
0
 10
49.4722
 20
-21.65
 11
49.6421
 21
-22.06
  0
LINE
  8
0
 10
49.6421
 20
-22.06
 11
49.7
 21
-22.5
  0
LINE
  8
0
 10
49.7
 20
-22.5
 11
49.6421
 21
-22.94
  0
LINE
  8
0
 10
49.6421
 20
-22.94
 11
49.4722
 21
-23.35
  0
LINE
  8
0
 10
49.4722
 20
-23.35
 11
49.2021
 21
-23.7021
  0
LINE
  8
0
 10
49.2021
 20
-23.7021
 11
48.85
 21
-23.9722
  0
LINE
  8
0
 10
48.85
 20
-23.9722
 11
48.44
 21
-24.1421
  0
LINE
  8
0
 10
48.44
 20
-24.1421
 11
48
 21
-24.2
  0
LINE
  8
0
 10
48
 20
-24.2
 11
47.56
 21
-24.1421
  0
ENDSEC
  0
SECTION
  2
OBJECTS
  0
DICTIONARY
  0
ENDSEC
  0
EOF
